<?xml version="1.0" standalone="no"?>
<!DOCTYPE svg PUBLIC "-//W3C//DTD SVG 20010904//EN"
 "http://www.w3.org/TR/2001/REC-SVG-20010904/DTD/svg10.dtd">
<svg version="1.0" xmlns="http://www.w3.org/2000/svg"
 width="200.000000pt" height="200.000000pt" viewBox="0 0 200.000000 200.000000"
 preserveAspectRatio="xMidYMid meet">
<metadata>
Created by potrace 1.16, written by Peter Selinger 2001-2019
</metadata>
<g transform="translate(0.000000,200.000000) scale(0.100000,-0.100000)"
fill="#000000" stroke="none">
<path d="M950 1731 c-57 -12 -109 -41 -143 -82 -18 -21 -129 -235 -247 -475
-204 -416 -215 -440 -218 -504 -5 -87 23 -155 86 -210 77 -68 91 -70 572 -70
462 0 484 2 560 55 20 14 50 49 66 78 23 43 28 64 29 122 0 67 -3 77 -77 230
-232 485 -362 739 -396 777 -57 64 -151 96 -232 79z m138 -60 c20 -11 49 -32
64 -48 23 -24 390 -753 383 -761 -1 -1 -21 5 -45 13 -23 8 -61 15 -84 15 -81
0 -128 -26 -278 -151 -328 -276 -491 -348 -628 -278 -74 37 -120 112 -120 195
0 57 15 92 253 574 184 374 205 408 272 443 43 23 137 22 183 -2z m402 -842
c57 -26 77 -44 103 -94 44 -84 15 -206 -61 -259 -21 -14 -62 -30 -91 -36 -80
-15 -672 -12 -647 3 142 91 239 160 326 234 143 121 174 143 217 159 54 19
101 17 153 -7z"/>
</g>
</svg>
